<svg width="26" height="26" viewBox="0 0 26 26" fill="none" xmlns="http://www.w3.org/2000/svg">
<path fill-rule="evenodd" clip-rule="evenodd" d="M11.8516 2.1665H14.1484C15.6725 2.1665 16.8674 2.1665 17.8278 2.24102C18.8057 2.31691 19.6136 2.47401 20.3449 2.82791C21.547 3.40969 22.5244 4.33802 23.1369 5.47984C23.5095 6.17439 23.6749 6.94175 23.7548 7.87061C23.8333 8.7828 23.8333 9.91775 23.8333 11.3654V14.2747C23.8333 14.5454 23.8333 14.7102 23.8261 14.8538C23.6703 17.9797 21.0375 20.4804 17.7465 20.6284C17.5953 20.6352 17.4043 20.6352 17.0876 20.6351H17.0559L16.9723 20.6352C16.0087 20.6411 15.0701 20.9268 14.2825 21.454L14.2279 21.4909L11.3271 23.4589C9.65541 24.593 7.45872 22.9552 8.22167 21.1435C8.32422 20.9 8.13542 20.6351 7.85931 20.6351H7.19069C4.41598 20.6351 2.16663 18.4987 2.16663 15.8632L2.16663 11.3654C2.16662 9.91776 2.16662 8.7828 2.24508 7.87061C2.32498 6.94175 2.49038 6.17439 2.86297 5.47984C3.4755 4.33802 4.45287 3.40969 5.65502 2.82791C6.38628 2.47401 7.19418 2.31692 8.17211 2.24102C9.1325 2.1665 10.3274 2.1665 11.8516 2.1665ZM8.30783 3.81879C7.43296 3.88669 6.86881 4.01716 6.41167 4.23839C5.52313 4.66841 4.80072 5.35456 4.34798 6.19852C4.11506 6.63272 3.97769 7.16856 3.90622 7.99952C3.83394 8.83972 3.83329 9.91013 3.83329 11.4008V15.8632C3.83329 17.6244 5.33645 19.0521 7.19069 19.0521H7.85931C9.31453 19.0521 10.3096 20.4481 9.76914 21.7314C9.62437 22.0752 10.0412 22.3859 10.3583 22.1708L13.2592 20.2027L13.3224 20.16C14.3881 19.4467 15.658 19.0602 16.9616 19.0522L17.0559 19.0521C17.4134 19.0521 17.5614 19.0519 17.6677 19.0471C20.1002 18.9377 22.0462 17.0894 22.1613 14.779C22.1664 14.6777 22.1666 14.5532 22.1666 14.249V11.4008C22.1666 9.91013 22.166 8.83972 22.0937 7.99952C22.0222 7.16856 21.8849 6.63272 21.6519 6.19852C21.1992 5.35456 20.4768 4.66841 19.5882 4.23839C19.1311 4.01716 18.567 3.88669 17.6921 3.81879C16.8075 3.75015 15.6805 3.74953 14.1111 3.74953H11.8888C10.3194 3.74953 9.19243 3.75015 8.30783 3.81879Z" fill="#9AA4B2"/>
<path d="M9.66663 11.4008C9.66663 11.9837 9.16916 12.4562 8.55552 12.4562C7.94187 12.4562 7.4444 11.9837 7.4444 11.4008C7.4444 10.818 7.94187 10.3455 8.55552 10.3455C9.16916 10.3455 9.66663 10.818 9.66663 11.4008Z" fill="#9AA4B2"/>
<path d="M14.1111 11.4008C14.1111 11.9837 13.6136 12.4562 13 12.4562C12.3863 12.4562 11.8888 11.9837 11.8888 11.4008C11.8888 10.818 12.3863 10.3455 13 10.3455C13.6136 10.3455 14.1111 10.818 14.1111 11.4008Z" fill="#9AA4B2"/>
<path d="M18.5555 11.4008C18.5555 11.9837 18.0581 12.4562 17.4444 12.4562C16.8308 12.4562 16.3333 11.9837 16.3333 11.4008C16.3333 10.818 16.8308 10.3455 17.4444 10.3455C18.0581 10.3455 18.5555 10.818 18.5555 11.4008Z" fill="#9AA4B2"/>
</svg>
