<svg width="20" height="20" viewBox="0 0 20 20" fill="none" xmlns="http://www.w3.org/2000/svg">
<path d="M1.25 17.8125C1.25 18.0611 1.34877 18.2996 1.52459 18.4754C1.7004 18.6512 1.93886 18.75 2.1875 18.75H17.8125C18.0611 18.75 18.2996 18.6512 18.4754 18.4754C18.6512 18.2996 18.75 18.0611 18.75 17.8125V6.875H1.25V17.8125ZM4.375 8.48203C4.375 8.38734 4.41262 8.29653 4.47957 8.22957C4.54653 8.16262 4.63734 8.125 4.73203 8.125H9.01797C9.11266 8.125 9.20347 8.16262 9.27043 8.22957C9.33738 8.29653 9.375 8.38734 9.375 8.48203V12.768C9.375 12.8627 9.33738 12.9535 9.27043 13.0204C9.20347 13.0874 9.11266 13.125 9.01797 13.125H4.73203C4.63734 13.125 4.54653 13.0874 4.47957 13.0204C4.41262 12.9535 4.375 12.8627 4.375 12.768V8.48203ZM17.8125 2.5H15.6281V1.25H13.7531V2.5H6.24687V1.25H4.37187V2.5H2.1875C2.06485 2.49897 1.94322 2.52222 1.8296 2.5684C1.71597 2.61459 1.61261 2.6828 1.52547 2.76911C1.43833 2.85542 1.36912 2.95811 1.32185 3.07129C1.27457 3.18446 1.25015 3.30587 1.25 3.42852V5.625H18.75V3.42852C18.7498 3.30587 18.7254 3.18446 18.6782 3.07129C18.6309 2.95811 18.5617 2.85542 18.4745 2.76911C18.3874 2.6828 18.284 2.61459 18.1704 2.5684C18.0568 2.52222 17.9351 2.49897 17.8125 2.5Z" fill="url(#paint0_linear_959_6601)"/>
<defs>
<linearGradient id="paint0_linear_959_6601" x1="1.25" y1="2.45984" x2="21.2682" y2="7.46141" gradientUnits="userSpaceOnUse">
<stop stop-color="#FF8A34"/>
<stop offset="1" stop-color="#6D5DD3"/>
</linearGradient>
</defs>
</svg>
