<svg width="16" height="18" viewBox="0 0 16 18" fill="none" xmlns="http://www.w3.org/2000/svg">
<g clip-path="url(#clip0_959_6587)">
<path d="M8 9C10.525 9 12.5714 6.98555 12.5714 4.5C12.5714 2.01445 10.525 0 8 0C5.475 0 3.42857 2.01445 3.42857 4.5C3.42857 6.98555 5.475 9 8 9ZM11.4214 10.1461L9.71429 16.875L8.57143 12.0938L9.71429 10.125H6.28571L7.42857 12.0938L6.28571 16.875L4.57857 10.1461C2.03214 10.2656 0 12.3152 0 14.85V16.3125C0 17.2441 0.767857 18 1.71429 18H14.2857C15.2321 18 16 17.2441 16 16.3125V14.85C16 12.3152 13.9679 10.2656 11.4214 10.1461Z" fill="url(#paint0_linear_959_6587)"/>
</g>
<defs>
<linearGradient id="paint0_linear_959_6587" x1="-6.12576e-08" y1="1.24441" x2="18.5309" y2="5.35993" gradientUnits="userSpaceOnUse">
<stop stop-color="#FF8A34"/>
<stop offset="1" stop-color="#6D5DD3"/>
</linearGradient>
<clipPath id="clip0_959_6587">
<rect width="16" height="18" fill="white"/>
</clipPath>
</defs>
</svg>
