<svg width="19" height="19" viewBox="0 0 19 19" fill="none" xmlns="http://www.w3.org/2000/svg">
<path d="M8.70801 3.1665H3.16634C2.74642 3.1665 2.34369 3.33332 2.04676 3.63025C1.74982 3.92718 1.58301 4.32991 1.58301 4.74984V15.8332C1.58301 16.2531 1.74982 16.6558 2.04676 16.9528C2.34369 17.2497 2.74642 17.4165 3.16634 17.4165H14.2497C14.6696 17.4165 15.0723 17.2497 15.3693 16.9528C15.6662 16.6558 15.833 16.2531 15.833 15.8332V10.2915" stroke="#10B981" stroke-width="1.5" stroke-linecap="round" stroke-linejoin="round"/>
<path d="M14.6455 1.97918C14.9605 1.66424 15.3876 1.4873 15.833 1.4873C16.2784 1.4873 16.7056 1.66424 17.0205 1.97918C17.3355 2.29413 17.5124 2.72128 17.5124 3.16668C17.5124 3.61208 17.3355 4.03924 17.0205 4.35418L9.49967 11.875L6.33301 12.6667L7.12467 9.50002L14.6455 1.97918Z" stroke="#10B981" stroke-width="1.5" stroke-linecap="round" stroke-linejoin="round"/>
</svg>
