<svg width="23" height="24" viewBox="0 0 23 24" fill="none" xmlns="http://www.w3.org/2000/svg">
<path fill-rule="evenodd" clip-rule="evenodd" d="M11.6558 23.388L11.6426 23.3902L11.5645 23.4287L11.5425 23.4331L11.5271 23.4287L11.449 23.3891C11.4373 23.3862 11.4285 23.3884 11.4226 23.3957L11.4182 23.4067L11.3995 23.8776L11.405 23.8996L11.416 23.9139L11.5304 23.9953L11.5469 23.9997L11.5601 23.9953L11.6746 23.9139L11.6878 23.8963L11.6922 23.8776L11.6734 23.4078C11.6705 23.3961 11.6646 23.3895 11.6558 23.388ZM11.9463 23.2637L11.9309 23.2659L11.7285 23.3682L11.7175 23.3792L11.7142 23.3913L11.734 23.8644L11.7395 23.8776L11.7483 23.8864L11.9694 23.9876C11.9833 23.9913 11.994 23.9884 12.0013 23.9788L12.0057 23.9634L11.9683 23.2879C11.9646 23.2739 11.9573 23.2659 11.9463 23.2637ZM11.1597 23.2659C11.1548 23.2629 11.149 23.262 11.1435 23.2632C11.1379 23.2644 11.1331 23.2678 11.1299 23.2725L11.1233 23.2879L11.0859 23.9634C11.0867 23.9766 11.0929 23.9854 11.1046 23.9898L11.1211 23.9876L11.3423 23.8853L11.3533 23.8765L11.3566 23.8644L11.3764 23.3913L11.3731 23.3781L11.3621 23.3671L11.1597 23.2659Z" fill="url(#paint0_linear_761_4573)"/>
<path fill-rule="evenodd" clip-rule="evenodd" d="M9.9019 0C8.44293 0 7.04371 0.579574 6.01207 1.61122C4.98042 2.64287 4.40084 4.04208 4.40084 5.50105C4.40084 6.96002 4.98042 8.35924 6.01207 9.39089C7.04371 10.4225 8.44293 11.0021 9.9019 11.0021C11.3609 11.0021 12.7601 10.4225 13.7917 9.39089C14.8234 8.35924 15.403 6.96002 15.403 5.50105C15.403 4.04208 14.8234 2.64287 13.7917 1.61122C12.7601 0.579574 11.3609 0 9.9019 0ZM9.9019 12.1023C7.26689 12.1023 4.86843 12.8659 3.1048 13.9419C2.22463 14.4788 1.47208 15.1125 0.928578 15.8012C0.393876 16.4768 0 17.2876 0 18.1535C0 19.0832 0.452187 19.8159 1.10351 20.3385C1.71963 20.8336 2.53269 21.1615 3.39635 21.3903C5.13248 21.8491 7.44953 22.0042 9.9019 22.0042C10.1557 22.0042 10.4069 22.0024 10.6555 21.9987C10.8398 21.9962 11.0205 21.9474 11.181 21.8569C11.3415 21.7663 11.4767 21.6369 11.5741 21.4805C11.6716 21.3242 11.7282 21.1458 11.7388 20.9618C11.7494 20.7778 11.7136 20.5942 11.6347 20.4276C11.2175 19.5446 11.0015 18.58 11.0021 17.6034C11.0021 16.2259 11.4235 14.9497 12.143 13.8924C12.25 13.7352 12.3144 13.5531 12.33 13.3637C12.3456 13.1742 12.3119 12.984 12.2321 12.8115C12.1524 12.639 12.0293 12.4901 11.8748 12.3793C11.7204 12.2685 11.5399 12.1996 11.3509 12.1793C10.8771 12.128 10.3941 12.1023 9.9019 12.1023ZM18.554 13.1992C18.4571 13.033 18.3183 12.8951 18.1516 12.7993C17.9848 12.7034 17.7957 12.653 17.6034 12.653C17.411 12.653 17.222 12.7034 17.0552 12.7993C16.8884 12.8951 16.7497 13.033 16.6528 13.1992L15.6516 14.9178L13.7086 15.338C13.5205 15.3787 13.3463 15.4681 13.2035 15.5971C13.0607 15.7262 12.9543 15.8904 12.8948 16.0735C12.8354 16.2566 12.825 16.452 12.8647 16.6404C12.9044 16.8287 12.9928 17.0033 13.1211 17.1468L14.4458 18.6299L14.2455 20.6081C14.2261 20.7995 14.2573 20.9927 14.3358 21.1683C14.4144 21.3439 14.5377 21.4959 14.6933 21.609C14.849 21.7221 15.0316 21.7924 15.2229 21.8129C15.4142 21.8335 15.6075 21.8034 15.7836 21.7259L17.6034 20.9227L19.4231 21.7259C19.5992 21.8034 19.7926 21.8335 19.9839 21.8129C20.1752 21.7924 20.3578 21.7221 20.5134 21.609C20.6691 21.4959 20.7923 21.3439 20.8709 21.1683C20.9495 20.9927 20.9806 20.7995 20.9612 20.6081L20.761 18.6288L22.0856 17.1468C22.2139 17.0033 22.3024 16.8287 22.3421 16.6404C22.3818 16.452 22.3714 16.2566 22.3119 16.0735C22.2525 15.8904 22.146 15.7262 22.0032 15.5971C21.8604 15.4681 21.6862 15.3787 21.4981 15.338L19.5551 14.9178L18.554 13.1992Z" fill="url(#paint1_linear_761_4573)"/>
<defs>
<linearGradient id="paint0_linear_761_4573" x1="11.0859" y1="23.3136" x2="12.1047" y2="23.6313" gradientUnits="userSpaceOnUse">
<stop stop-color="#FF8A34"/>
<stop offset="1" stop-color="#6D5DD3"/>
</linearGradient>
<linearGradient id="paint1_linear_761_4573" x1="-8.56294e-08" y1="1.52124" x2="25.5344" y2="8.00585" gradientUnits="userSpaceOnUse">
<stop stop-color="#FF8A34"/>
<stop offset="1" stop-color="#6D5DD3"/>
</linearGradient>
</defs>
</svg>
