<svg width="26" height="26" viewBox="0 0 26 26" fill="none" xmlns="http://www.w3.org/2000/svg">
<path d="M2.1665 7.11888C2.1665 5.53189 2.1665 4.73839 2.43768 4.11686C2.76555 3.36536 3.36536 2.76555 4.11686 2.43768C4.73839 2.1665 5.53189 2.1665 7.11888 2.1665C8.70588 2.1665 9.49938 2.1665 10.1209 2.43768C10.8724 2.76555 11.4722 3.36536 11.8001 4.11686C12.0713 4.73839 12.0713 5.53189 12.0713 7.11888C12.0713 8.70588 12.0713 9.49938 11.8001 10.1209C11.4722 10.8724 10.8724 11.4722 10.1209 11.8001C9.49938 12.0713 8.70588 12.0713 7.11888 12.0713C5.53189 12.0713 4.73839 12.0713 4.11686 11.8001C3.36536 11.4722 2.76555 10.8724 2.43768 10.1209C2.1665 9.49938 2.1665 8.70588 2.1665 7.11888Z" fill="url(#paint0_linear_69_533)"/>
<path d="M2.1665 18.8811C2.1665 17.2941 2.1665 16.5006 2.43768 15.8791C2.76555 15.1276 3.36536 14.5278 4.11686 14.1999C4.73839 13.9287 5.53189 13.9287 7.11888 13.9287C8.70588 13.9287 9.49938 13.9287 10.1209 14.1999C10.8724 14.5278 11.4722 15.1276 11.8001 15.8791C12.0713 16.5006 12.0713 17.2941 12.0713 18.8811C12.0713 20.4681 12.0713 21.2616 11.8001 21.8831C11.4722 22.6346 10.8724 23.2344 10.1209 23.5623C9.49938 23.8335 8.70588 23.8335 7.11888 23.8335C5.53189 23.8335 4.73839 23.8335 4.11686 23.5623C3.36536 23.2344 2.76555 22.6346 2.43768 21.8831C2.1665 21.2616 2.1665 20.4681 2.1665 18.8811Z" fill="url(#paint1_linear_69_533)"/>
<path d="M13.9282 7.11888C13.9282 5.53189 13.9282 4.73839 14.1994 4.11686C14.5273 3.36536 15.1271 2.76555 15.8786 2.43768C16.5001 2.1665 17.2936 2.1665 18.8806 2.1665C20.4676 2.1665 21.2611 2.1665 21.8826 2.43768C22.6341 2.76555 23.2339 3.36536 23.5618 4.11686C23.833 4.73839 23.833 5.53189 23.833 7.11888C23.833 8.70588 23.833 9.49938 23.5618 10.1209C23.2339 10.8724 22.6341 11.4722 21.8826 11.8001C21.2611 12.0713 20.4676 12.0713 18.8806 12.0713C17.2936 12.0713 16.5001 12.0713 15.8786 11.8001C15.1271 11.4722 14.5273 10.8724 14.1994 10.1209C13.9282 9.49938 13.9282 8.70588 13.9282 7.11888Z" fill="url(#paint2_linear_69_533)"/>
<path d="M13.9282 18.8811C13.9282 17.2941 13.9282 16.5006 14.1994 15.8791C14.5273 15.1276 15.1271 14.5278 15.8786 14.1999C16.5001 13.9287 17.2936 13.9287 18.8806 13.9287C20.4676 13.9287 21.2611 13.9287 21.8826 14.1999C22.6341 14.5278 23.2339 15.1276 23.5618 15.8791C23.833 16.5006 23.833 17.2941 23.833 18.8811C23.833 20.4681 23.833 21.2616 23.5618 21.8831C23.2339 22.6346 22.6341 23.2344 21.8826 23.5623C21.2611 23.8335 20.4676 23.8335 18.8806 23.8335C17.2936 23.8335 16.5001 23.8335 15.8786 23.5623C15.1271 23.2344 14.5273 22.6346 14.1994 21.8831C13.9282 21.2616 13.9282 20.4681 13.9282 18.8811Z" fill="url(#paint3_linear_69_533)"/>
<defs>
<linearGradient id="paint0_linear_69_533" x1="2.1665" y1="2.85126" x2="13.4965" y2="5.68208" gradientUnits="userSpaceOnUse">
<stop stop-color="#FF8A34"/>
<stop offset="1" stop-color="#6D5DD3"/>
</linearGradient>
<linearGradient id="paint1_linear_69_533" x1="2.1665" y1="14.6135" x2="13.4965" y2="17.4443" gradientUnits="userSpaceOnUse">
<stop stop-color="#FF8A34"/>
<stop offset="1" stop-color="#6D5DD3"/>
</linearGradient>
<linearGradient id="paint2_linear_69_533" x1="13.9282" y1="2.85126" x2="25.2582" y2="5.68208" gradientUnits="userSpaceOnUse">
<stop stop-color="#FF8A34"/>
<stop offset="1" stop-color="#6D5DD3"/>
</linearGradient>
<linearGradient id="paint3_linear_69_533" x1="13.9282" y1="14.6135" x2="25.2582" y2="17.4443" gradientUnits="userSpaceOnUse">
<stop stop-color="#FF8A34"/>
<stop offset="1" stop-color="#6D5DD3"/>
</linearGradient>
</defs>
</svg>
