<svg width="26" height="26" viewBox="0 0 26 26" fill="none" xmlns="http://www.w3.org/2000/svg">
<path d="M7.11865 2.6665C7.91933 2.6665 8.49429 2.6664 8.94678 2.69873C9.39423 2.73073 9.68456 2.79267 9.92139 2.896C10.5571 3.17346 11.0649 3.68113 11.3423 4.31689C11.4456 4.55375 11.5066 4.84396 11.5386 5.2915C11.5709 5.74394 11.5708 6.31813 11.5708 7.11865C11.5708 7.91933 11.5709 8.49429 11.5386 8.94678C11.5066 9.39421 11.4456 9.68457 11.3423 9.92139C11.0649 10.5571 10.5571 11.0649 9.92139 11.3423C9.68457 11.4456 9.39421 11.5066 8.94678 11.5386C8.49429 11.5709 7.91933 11.5708 7.11865 11.5708C6.31813 11.5708 5.74394 11.5709 5.2915 11.5386C4.84396 11.5066 4.55375 11.4456 4.31689 11.3423C3.68113 11.0649 3.17346 10.5571 2.896 9.92139C2.79267 9.68456 2.73073 9.39423 2.69873 8.94678C2.6664 8.49429 2.6665 7.91933 2.6665 7.11865C2.6665 6.31815 2.66641 5.74394 2.69873 5.2915C2.73071 4.84384 2.79266 4.55378 2.896 4.31689C3.17343 3.68101 3.68101 3.17343 4.31689 2.896C4.55378 2.79266 4.84384 2.73071 5.2915 2.69873C5.74394 2.66641 6.31815 2.6665 7.11865 2.6665Z" stroke="#9AA4B2"/>
<path d="M7.11865 14.4287C7.91933 14.4287 8.49429 14.4286 8.94678 14.4609C9.39423 14.4929 9.68456 14.5549 9.92139 14.6582C10.5571 14.9357 11.0649 15.4433 11.3423 16.0791C11.4456 16.316 11.5066 16.6062 11.5386 17.0537C11.5709 17.5062 11.5708 18.0803 11.5708 18.8809C11.5708 19.6815 11.5709 20.2565 11.5386 20.709C11.5066 21.1564 11.4456 21.4468 11.3423 21.6836C11.0649 22.3193 10.5571 22.8271 9.92139 23.1045C9.68457 23.2078 9.39421 23.2688 8.94678 23.3008C8.49429 23.3331 7.91933 23.333 7.11865 23.333C6.31813 23.333 5.74394 23.3331 5.2915 23.3008C4.84396 23.2688 4.55375 23.2078 4.31689 23.1045C3.68113 22.8271 3.17346 22.3193 2.896 21.6836C2.79267 21.4468 2.73073 21.1564 2.69873 20.709C2.6664 20.2565 2.6665 19.6815 2.6665 18.8809C2.6665 18.0804 2.66641 17.5061 2.69873 17.0537C2.73071 16.6061 2.79266 16.316 2.896 16.0791C3.17343 15.4432 3.68101 14.9356 4.31689 14.6582C4.55378 14.5549 4.84384 14.4929 5.2915 14.4609C5.74394 14.4286 6.31815 14.4287 7.11865 14.4287Z" stroke="#9AA4B2"/>
<path d="M18.8804 2.6665C19.681 2.6665 20.256 2.6664 20.7085 2.69873C21.156 2.73073 21.4463 2.79267 21.6831 2.896C22.3188 3.17346 22.8266 3.68113 23.104 4.31689C23.2073 4.55375 23.2683 4.84396 23.3003 5.2915C23.3326 5.74394 23.3325 6.31813 23.3325 7.11865C23.3325 7.91933 23.3326 8.49429 23.3003 8.94678C23.2683 9.39421 23.2073 9.68457 23.104 9.92139C22.8266 10.5571 22.3188 11.0649 21.6831 11.3423C21.4463 11.4456 21.1559 11.5066 20.7085 11.5386C20.256 11.5709 19.681 11.5708 18.8804 11.5708C18.0798 11.5708 17.5057 11.5709 17.0532 11.5386C16.6057 11.5066 16.3155 11.4456 16.0786 11.3423C15.4429 11.0649 14.9352 10.5571 14.6577 9.92139C14.5544 9.68456 14.4924 9.39423 14.4604 8.94678C14.4281 8.49429 14.4282 7.91933 14.4282 7.11865C14.4282 6.31815 14.4281 5.74394 14.4604 5.2915C14.4924 4.84384 14.5544 4.55378 14.6577 4.31689C14.9351 3.68101 15.4427 3.17343 16.0786 2.896C16.3155 2.79266 16.6056 2.73071 17.0532 2.69873C17.5057 2.66641 18.0799 2.6665 18.8804 2.6665Z" stroke="#9AA4B2"/>
<path d="M18.8804 14.4287C19.681 14.4287 20.256 14.4286 20.7085 14.4609C21.156 14.4929 21.4463 14.5549 21.6831 14.6582C22.3188 14.9357 22.8266 15.4433 23.104 16.0791C23.2073 16.316 23.2683 16.6062 23.3003 17.0537C23.3326 17.5062 23.3325 18.0803 23.3325 18.8809C23.3325 19.6815 23.3326 20.2565 23.3003 20.709C23.2683 21.1564 23.2073 21.4468 23.104 21.6836C22.8266 22.3193 22.3188 22.8271 21.6831 23.1045C21.4463 23.2078 21.1559 23.2688 20.7085 23.3008C20.256 23.3331 19.681 23.333 18.8804 23.333C18.0798 23.333 17.5057 23.3331 17.0532 23.3008C16.6057 23.2688 16.3155 23.2078 16.0786 23.1045C15.4429 22.8271 14.9352 22.3193 14.6577 21.6836C14.5544 21.4468 14.4924 21.1564 14.4604 20.709C14.4281 20.2565 14.4282 19.6815 14.4282 18.8809C14.4282 18.0804 14.4281 17.5061 14.4604 17.0537C14.4924 16.6061 14.5544 16.316 14.6577 16.0791C14.9351 15.4432 15.4427 14.9356 16.0786 14.6582C16.3155 14.5549 16.6056 14.4929 17.0532 14.4609C17.5057 14.4286 18.0799 14.4287 18.8804 14.4287Z" stroke="#9AA4B2"/>
</svg>
