<svg width="26" height="26" viewBox="0 0 26 26" fill="none" xmlns="http://www.w3.org/2000/svg">
<path fill-rule="evenodd" clip-rule="evenodd" d="M7.10671 5.29658C4.35255 7.34162 2.97547 8.36414 2.43461 9.87455C2.39122 9.99571 2.3522 10.1185 2.31761 10.2426C1.88649 11.7894 2.41249 13.4439 3.46449 16.7528C4.51649 20.0618 5.04249 21.7162 6.28091 22.7087C6.38025 22.7883 6.48242 22.8642 6.58721 22.9361C7.89346 23.8332 9.59562 23.8332 13 23.8332C16.4043 23.8332 18.1065 23.8332 19.4127 22.9361C19.5175 22.8642 19.6197 22.7883 19.719 22.7087C20.9574 21.7162 21.4834 20.0618 22.5354 16.7528C23.5874 13.4439 24.1134 11.7894 23.6823 10.2426C23.6477 10.1185 23.6087 9.99571 23.5653 9.87455C23.0245 8.36415 21.6474 7.34163 18.8932 5.29659C16.1391 3.25155 14.762 2.22901 13.1893 2.17005C13.0631 2.16532 12.9368 2.16532 12.8107 2.17005C11.238 2.22901 9.86088 3.25154 7.10671 5.29658ZM10.9344 18.0722C10.5067 18.0722 10.1599 18.4266 10.1599 18.8638C10.1599 19.301 10.5067 19.6554 10.9344 19.6554H15.0655C15.4932 19.6554 15.84 19.301 15.84 18.8638C15.84 18.4266 15.4932 18.0722 15.0655 18.0722H10.9344Z" fill="url(#paint0_linear_70_1069)"/>
<defs>
<linearGradient id="paint0_linear_70_1069" x1="2.16663" y1="3.6644" x2="26.9511" y2="9.85683" gradientUnits="userSpaceOnUse">
<stop stop-color="#FF8A34"/>
<stop offset="1" stop-color="#6D5DD3"/>
</linearGradient>
</defs>
</svg>
