<svg width="26" height="26" viewBox="0 0 26 26" fill="none" xmlns="http://www.w3.org/2000/svg">
<path d="M3.46449 16.7528L4.16086 16.5314L3.46449 16.7528ZM2.31761 10.2426L3.0215 10.4387L2.31761 10.2426ZM7.10671 5.29658L6.6711 4.70991V4.70991L7.10671 5.29658ZM2.43461 9.87455L3.12255 10.1209L2.43461 9.87455ZM6.58721 22.9361L6.17355 23.5385V23.5385L6.58721 22.9361ZM6.28091 22.7087L5.82396 23.2789V23.2789L6.28091 22.7087ZM22.5354 16.7528L21.8391 16.5314L22.5354 16.7528ZM19.719 22.7087L20.176 23.2789V23.2789L19.719 22.7087ZM19.4127 22.9361L19.8264 23.5385V23.5385L19.4127 22.9361ZM18.8932 5.29658L19.3288 4.70991V4.70991L18.8932 5.29658ZM23.5653 9.87455L22.8774 10.1209L23.5653 9.87455ZM23.6823 10.2426L22.9784 10.4387L23.6823 10.2426ZM13.1893 2.17005L13.1619 2.90025L13.1893 2.17005ZM12.8107 2.17005L12.838 2.90025L12.8107 2.17005ZM10.9345 18.1331C10.5309 18.1331 10.2037 18.4602 10.2037 18.8638C10.2037 19.2673 10.5309 19.5945 10.9345 19.5945V18.8638V18.1331ZM15.0655 19.5945C15.469 19.5945 15.7962 19.2673 15.7962 18.8638C15.7962 18.4602 15.469 18.1331 15.0655 18.1331V18.8638V19.5945ZM3.46449 16.7528L4.16086 16.5314C3.63015 14.8621 3.25026 13.6641 3.05073 12.6902C2.85454 11.7327 2.84847 11.0595 3.0215 10.4387L2.31761 10.2426L1.61372 10.0464C1.35563 10.9724 1.39701 11.8999 1.61904 12.9836C1.83772 14.0509 2.24683 15.3346 2.76812 16.9742L3.46449 16.7528ZM7.10671 5.29658L6.6711 4.70991C5.30677 5.72296 4.23621 6.51664 3.44425 7.24986C2.63925 7.99514 2.0709 8.72276 1.74667 9.62821L2.43461 9.87455L3.12255 10.1209C3.33917 9.51593 3.7298 8.97709 4.4371 8.32225C5.15743 7.65534 6.15249 6.91524 7.54233 5.88325L7.10671 5.29658ZM2.31761 10.2426L3.0215 10.4387C3.05138 10.3315 3.08508 10.2255 3.12255 10.1209L2.43461 9.87455L1.74667 9.62821C1.69736 9.76591 1.65302 9.90539 1.61372 10.0464L2.31761 10.2426ZM13 23.8332V23.1025C11.2816 23.1025 10.0521 23.1014 9.08709 22.9948C8.14001 22.8901 7.51892 22.6895 7.00087 22.3338L6.58721 22.9361L6.17355 23.5385C6.96175 24.0798 7.84486 24.3278 8.92652 24.4473C9.99025 24.5649 11.314 24.5639 13 24.5639V23.8332ZM3.46449 16.7528L2.76812 16.9742C3.28937 18.6138 3.69672 19.8982 4.13376 20.8933C4.57732 21.9032 5.07843 22.6815 5.82396 23.2789L6.28091 22.7087L6.73786 22.1385C6.24496 21.7435 5.86387 21.1983 5.47182 20.3056C5.07326 19.3981 4.6916 18.2008 4.16086 16.5314L3.46449 16.7528ZM6.58721 22.9361L7.00087 22.3338C6.91092 22.272 6.82319 22.2069 6.73786 22.1385L6.28091 22.7087L5.82396 23.2789C5.93731 23.3697 6.05392 23.4563 6.17355 23.5385L6.58721 22.9361ZM22.5354 16.7528L21.8391 16.5314C21.3083 18.2008 20.9267 19.3981 20.5281 20.3056C20.1361 21.1983 19.755 21.7435 19.2621 22.1385L19.719 22.7087L20.176 23.2789C20.9215 22.6815 21.4226 21.9032 21.8662 20.8933C22.3032 19.8982 22.7105 18.6138 23.2318 16.9742L22.5354 16.7528ZM13 23.8332V24.5639C14.6859 24.5639 16.0097 24.5649 17.0734 24.4473C18.1551 24.3278 19.0382 24.0798 19.8264 23.5385L19.4127 22.9361L18.9991 22.3338C18.481 22.6895 17.8599 22.8901 16.9128 22.9948C15.9478 23.1014 14.7183 23.1025 13 23.1025V23.8332ZM19.719 22.7087L19.2621 22.1385C19.1767 22.2069 19.089 22.272 18.9991 22.3338L19.4127 22.9361L19.8264 23.5385C19.946 23.4563 20.0626 23.3697 20.176 23.2789L19.719 22.7087ZM18.8932 5.29658L18.4576 5.88325C19.8474 6.91524 20.8425 7.65534 21.5628 8.32225C22.2701 8.97709 22.6607 9.51593 22.8774 10.1209L23.5653 9.87455L24.2532 9.62821C23.929 8.72276 23.3607 7.99514 22.5557 7.24986C21.7637 6.51664 20.6931 5.72296 19.3288 4.70991L18.8932 5.29658ZM22.5354 16.7528L23.2318 16.9742C23.7531 15.3346 24.1622 14.0509 24.3809 12.9836C24.6029 11.8999 24.6443 10.9724 24.3862 10.0464L23.6823 10.2426L22.9784 10.4387C23.1514 11.0595 23.1454 11.7327 22.9492 12.6902C22.7497 13.6641 22.3698 14.8621 21.8391 16.5314L22.5354 16.7528ZM23.5653 9.87455L22.8774 10.1209C22.9148 10.2255 22.9485 10.3315 22.9784 10.4387L23.6823 10.2426L24.3862 10.0464C24.3469 9.9054 24.3026 9.76591 24.2532 9.62821L23.5653 9.87455ZM18.8932 5.29658L19.3288 4.70991C17.9646 3.69697 16.895 2.9015 15.9676 2.35808C15.0255 1.80604 14.1682 1.47553 13.2166 1.43985L13.1893 2.17005L13.1619 2.90025C13.783 2.92354 14.4006 3.13377 15.2288 3.61899C16.0716 4.11283 17.0676 4.85114 18.4576 5.88325L18.8932 5.29658ZM7.10671 5.29658L7.54233 5.88325C8.93232 4.85114 9.92834 4.11283 10.7711 3.61899C11.5993 3.13377 12.2169 2.92354 12.838 2.90025L12.8107 2.17005L12.7833 1.43985C11.8317 1.47553 10.9745 1.80604 10.0323 2.35808C9.10488 2.9015 8.03527 3.69697 6.6711 4.70991L7.10671 5.29658ZM13.1893 2.17005L13.2166 1.43985C13.0722 1.43444 12.9277 1.43444 12.7833 1.43985L12.8107 2.17005L12.838 2.90025C12.9459 2.89621 13.054 2.89621 13.1619 2.90025L13.1893 2.17005ZM10.9345 18.8638V19.5945H15.0655V18.8638V18.1331H10.9345V18.8638Z" fill="#9AA4B2"/>
</svg>
