<svg width="24" height="24" viewBox="0 0 24 24" fill="none" xmlns="http://www.w3.org/2000/svg">
<path d="M18 8C18 6.4087 17.3679 4.88258 16.2426 3.75736C15.1174 2.63214 13.5913 2 12 2C10.4087 2 8.88258 2.63214 7.75736 3.75736C6.63214 4.88258 6 6.4087 6 8C6 15 3 17 3 17H21C21 17 18 15 18 8Z" fill="url(#paint0_linear_762_2201)"/>
<path d="M13.7295 21C13.5537 21.3031 13.3014 21.5547 12.9978 21.7295C12.6941 21.9044 12.3499 21.9965 11.9995 21.9965C11.6492 21.9965 11.3049 21.9044 11.0013 21.7295C10.6977 21.5547 10.4453 21.3031 10.2695 21" stroke="url(#paint1_linear_762_2201)" stroke-width="2" stroke-linecap="round" stroke-linejoin="round"/>
<defs>
<linearGradient id="paint0_linear_762_2201" x1="3" y1="3.03701" x2="23.0712" y2="9.0548" gradientUnits="userSpaceOnUse">
<stop stop-color="#FF8A34"/>
<stop offset="1" stop-color="#6D5DD3"/>
</linearGradient>
<linearGradient id="paint1_linear_762_2201" x1="10.2695" y1="21.0689" x2="12.6687" y2="23.1503" gradientUnits="userSpaceOnUse">
<stop stop-color="#FF8A34"/>
<stop offset="1" stop-color="#6D5DD3"/>
</linearGradient>
</defs>
</svg>
