<svg width="26" height="26" viewBox="0 0 26 26" fill="none" xmlns="http://www.w3.org/2000/svg">
<path d="M17.3337 9.74984H16.5212C16.5212 11.6943 14.9448 13.2707 13.0003 13.2707V14.0832V14.8957C15.8423 14.8957 18.1462 12.5918 18.1462 9.74984H17.3337ZM13.0003 14.0832V13.2707C11.0558 13.2707 9.47949 11.6943 9.47949 9.74984H8.66699H7.85449C7.85449 12.5918 10.1584 14.8957 13.0003 14.8957V14.0832ZM8.66699 9.74984H9.47949C9.47949 7.80533 11.0558 6.229 13.0003 6.229V5.4165V4.604C10.1584 4.604 7.85449 6.90787 7.85449 9.74984H8.66699ZM13.0003 5.4165V6.229C14.9448 6.229 16.5212 7.80533 16.5212 9.74984H17.3337H18.1462C18.1462 6.90787 15.8423 4.604 13.0003 4.604V5.4165ZM9.75033 17.3332V18.1457H16.2503V17.3332V16.5207H9.75033V17.3332ZM2.16699 12.9998H2.97949C2.97949 7.46548 7.46597 2.979 13.0003 2.979V2.1665V1.354C6.56851 1.354 1.35449 6.56802 1.35449 12.9998H2.16699ZM13.0003 2.1665V2.979C18.5347 2.979 23.0212 7.46548 23.0212 12.9998H23.8337H24.6462C24.6462 6.56802 19.4321 1.354 13.0003 1.354V2.1665ZM23.8337 12.9998H23.0212C23.0212 15.8417 21.8392 18.4062 19.9379 20.2309L20.5004 20.8171L21.063 21.4033C23.2704 19.2849 24.6462 16.3023 24.6462 12.9998H23.8337ZM20.5004 20.8171L19.9379 20.2309C18.1366 21.9595 15.6932 23.0207 13.0003 23.0207V23.8332V24.6457C16.1292 24.6457 18.9713 23.4107 21.063 21.4033L20.5004 20.8171ZM16.2503 17.3332V18.1457C17.9577 18.1457 19.3828 19.3618 19.7035 20.9755L20.5004 20.8171L21.2974 20.6587C20.8285 18.2993 18.748 16.5207 16.2503 16.5207V17.3332ZM13.0003 23.8332V23.0207C10.3074 23.0207 7.86407 21.9595 6.06279 20.2309L5.50021 20.8171L4.93762 21.4033C7.02935 23.4107 9.87147 24.6457 13.0003 24.6457V23.8332ZM5.50021 20.8171L6.06279 20.2309C4.16144 18.4062 2.97949 15.8417 2.97949 12.9998H2.16699H1.35449C1.35449 16.3023 2.73021 19.2849 4.93762 21.4033L5.50021 20.8171ZM9.75033 17.3332V16.5207C7.25265 16.5207 5.1722 18.2993 4.70329 20.6587L5.50021 20.8171L6.29712 20.9755C6.61782 19.3618 8.04295 18.1457 9.75033 18.1457V17.3332Z" fill="#9AA4B2"/>
</svg>
