<svg width="32" height="23" viewBox="0 0 32 23" fill="none" xmlns="http://www.w3.org/2000/svg">
<path d="M16 0C17.3791 0 18.7018 0.543133 19.677 1.50992C20.6521 2.4767 21.2 3.78794 21.2 5.15517C21.2 6.52241 20.6521 7.83365 19.677 8.80043C18.7018 9.76721 17.3791 10.3103 16 10.3103C14.6209 10.3103 13.2982 9.76721 12.323 8.80043C11.3479 7.83365 10.8 6.52241 10.8 5.15517C10.8 3.78794 11.3479 2.4767 12.323 1.50992C13.2982 0.543133 14.6209 0 16 0ZM4.8 3.56897C5.27276 3.56897 5.74089 3.66128 6.17766 3.84064C6.61443 4.01999 7.01129 4.28288 7.34558 4.61429C7.67987 4.9457 7.94505 5.33914 8.12597 5.77215C8.30688 6.20515 8.4 6.66925 8.4 7.13793C8.4 7.60661 8.30688 8.07071 8.12597 8.50372C7.94505 8.93672 7.67987 9.33016 7.34558 9.66157C7.01129 9.99298 6.61443 10.2559 6.17766 10.4352C5.74089 10.6146 5.27276 10.7069 4.8 10.7069C4.32724 10.7069 3.85911 10.6146 3.42234 10.4352C2.98557 10.2559 2.58871 9.99298 2.25442 9.66157C1.92012 9.33016 1.65495 8.93672 1.47403 8.50372C1.29312 8.07071 1.2 7.60661 1.2 7.13793C1.2 6.66925 1.29312 6.20515 1.47403 5.77215C1.65495 5.33914 1.92012 4.9457 2.25442 4.61429C2.58871 4.28288 2.98557 4.01999 3.42234 3.84064C3.85911 3.66128 4.32724 3.56897 4.8 3.56897ZM0 19.8276C0 16.3231 2.865 13.4828 6.4 13.4828C7.04 13.4828 7.66 13.5769 8.245 13.7504C6.6 15.5746 5.6 17.9836 5.6 20.6207V21.4138C5.6 21.9789 5.72 22.5142 5.935 23H1.6C0.715 23 0 22.2912 0 21.4138V19.8276ZM26.065 23C26.28 22.5142 26.4 21.9789 26.4 21.4138V20.6207C26.4 17.9836 25.4 15.5746 23.755 13.7504C24.34 13.5769 24.96 13.4828 25.6 13.4828C29.135 13.4828 32 16.3231 32 19.8276V21.4138C32 22.2912 31.285 23 30.4 23H26.065ZM23.6 7.13793C23.6 6.19138 23.9793 5.2836 24.6544 4.61429C25.3295 3.94498 26.2452 3.56897 27.2 3.56897C28.1548 3.56897 29.0705 3.94498 29.7456 4.61429C30.4207 5.2836 30.8 6.19138 30.8 7.13793C30.8 8.08448 30.4207 8.99226 29.7456 9.66157C29.0705 10.3309 28.1548 10.7069 27.2 10.7069C26.2452 10.7069 25.3295 10.3309 24.6544 9.66157C23.9793 8.99226 23.6 8.08448 23.6 7.13793ZM8 20.6207C8 16.2388 11.58 12.6897 16 12.6897C20.42 12.6897 24 16.2388 24 20.6207V21.4138C24 22.2912 23.285 23 22.4 23H9.6C8.715 23 8 22.2912 8 21.4138V20.6207Z" fill="url(#paint0_linear_762_2167)"/>
<defs>
<linearGradient id="paint0_linear_762_2167" x1="-1.22515e-07" y1="1.59008" x2="34.697" y2="13.6514" gradientUnits="userSpaceOnUse">
<stop stop-color="#FF8A34"/>
<stop offset="1" stop-color="#6D5DD3"/>
</linearGradient>
</defs>
</svg>
